<?xml version="1.0" encoding="UTF-8"?>
<svg id="Layer_2" data-name="Layer 2" xmlns="http://www.w3.org/2000/svg" xmlns:xlink="http://www.w3.org/1999/xlink" viewBox="0 0 402.87 402.87">
  <defs>
    <style>
      .cls-1 {
        fill: #52b6f2;
      }

      .cls-2 {
        fill: #9dd3f5;
      }

      .cls-3 {
        fill: #fff;
      }

      .cls-4 {
        clip-path: url(#clippath-1);
      }

      .cls-5 {
        fill: #f2525200;
      }

      .cls-6 {
        fill: #2e89b7;
      }

      .cls-7 {
        clip-path: url(#clippath);
      }
    </style>
    <clipPath id="clippath">
      <rect class="cls-5" width="402.87" height="402.87" rx="71.84" ry="71.84"/>
    </clipPath>
    <clipPath id="clippath-1">
      <!-- shadows -->
      <path class="cls-1" d="M13.77,164.88s18-4.54,35.09.87c13.85-58.82,66.64-102.63,129.69-102.63,7.42,0,14.69.63,21.78,1.8-.61-1.65-1.13-3.35-1.51-5.13-5.67-26.39,19.09-49.41,19.09-49.41,0,0,21.18,7.15,32.14,24,15.94-9.82,35.73-9.59,35.73-9.59,0,0,7.7,16.64,6.13,34.45,17.08,4.9,29.8,17.86,29.8,17.86,0,0-11.66,31.88-37.75,37.8,12.96,16.74,22.01,36.64,25.81,58.36,19.25-11.78,45.37-5.85,45.37-5.85,0,0,7.61,33.47-11.47,52.55-10.71,10.71-25.73,12.79-36.85,12.56-15.75,56.04-67.2,97.14-128.27,97.14s-114.86-42.98-129.3-100.97c-8.59-1.49-17.63-4.89-24.7-11.96-19.08-19.08-10.78-51.86-10.78-51.86Z"/>
    </clipPath>
  </defs>
  <g id="Logo_Icon" data-name="Logo Icon">
    <g>
      <rect class="cls-5" width="402.87" height="402.87" rx="71.84" ry="71.84"/>
      <g class="cls-7">
        <g>
          <g>
            <g>

              <!-- full body -->
              <path class="cls-1" d="M13.77,164.88s18-4.54,35.09.87c13.85-58.82,66.64-102.63,129.69-102.63,7.42,0,14.69.63,21.78,1.8-.61-1.65-1.13-3.35-1.51-5.13-5.67-26.39,19.09-49.41,19.09-49.41,0,0,21.18,7.15,32.14,24,15.94-9.82,35.73-9.59,35.73-9.59,0,0,7.7,16.64,6.13,34.45,17.08,4.9,29.8,17.86,29.8,17.86,0,0-11.66,31.88-37.75,37.8,12.96,16.74,22.01,36.64,25.81,58.36,19.25-11.78,45.37-5.85,45.37-5.85,0,0,7.61,33.47-11.47,52.55-10.71,10.71-25.73,12.79-36.85,12.56-15.75,56.04-67.2,97.14-128.27,97.14s-114.86-42.98-129.3-100.97c-8.59-1.49-17.63-4.89-24.7-11.96-19.08-19.08-10.78-51.86-10.78-51.86Z"/>

              <g class="cls-4">
                <!-- shading under body -->
                <path class="cls-6" d="M418.01-58.25l-61.36,253.45c-4.83,16.63-18.9,30.64-31.85,30.64-6.49,0-12.71-3.52-17.34-11.98,0,0-48.94,86.57-154.7,86.57-2.54,0-5.11-.05-7.72-.15-78.25-3.07-96.79-83.86-96.79-83.86-2.87.42-5.72.65-8.53.65-19.51,0-37.24-10.97-51.54-43.07L-65.78-53.8l483.79-4.45M468.96-98.72l-51.32.47-483.79,4.45-50.1.46,11.55,48.76,53.95,227.79.86,3.64,1.52,3.42c9.62,21.6,21.32,37.57,35.75,48.83,9.91,7.73,20.8,12.99,32.53,15.73,3.68,7.82,8.47,16.54,14.61,25.31,11.45,16.34,25.27,29.67,41.09,39.6,20.09,12.62,42.92,19.52,67.85,20.5,3.1.12,6.23.18,9.29.18,52.86,0,102.28-18.26,142.92-52.81,8.89-7.55,16.45-15.13,22.75-22.12,2.09.23,4.22.34,6.37.34,16.68,0,33.33-7.25,46.86-20.41,10.84-10.54,19.15-24.42,23.41-39.09l.25-.86.21-.87,61.36-253.45,12.08-49.88h0Z"/>

                <!-- shading under feathers -->
                <path class="cls-6" d="M230.71,75.29c35.01,2.21,53.17-22.32,69.07-50.15l79.48,35.64-40.67,57.04-54.63-2.92c-14.6-18.96-34.65-29.84-53.26-39.61Z"/>
              </g>
            </g>
            <g>

              <!-- outer eye -->
              <path class="cls-3" d="M205.32,125.81c-15.45-1.22-29.61,4.38-39.79,14.11-7.1,6.79-18.21,6.79-25.31,0-10.18-9.73-24.34-15.33-39.79-14.11-25.18,1.99-45.44,22.47-47.2,47.66-2.1,30.13,21.72,55.23,51.4,55.23,13.84,0,26.41-5.46,35.67-14.35,7.03-6.75,18.14-6.75,25.16,0,9.26,8.88,21.82,14.35,35.67,14.35,29.68,0,53.5-25.1,51.4-55.23-1.76-25.19-22.02-45.66-47.2-47.66Z"/>

              <!-- left inner eye -->
              <circle cx="123.82" cy="195.2" r="21.21"/>
              <circle class="cls-3" cx="123.91" cy="180.18" r="11.83"/>

              <!-- right inner eye -->
              <circle cx="176.11" cy="195.2" r="21.21"/>
              <circle class="cls-3" cx="176.11" cy="180.18" r="11.83"/>

              <!-- beak -->
              <path class="cls-2" d="M145.03,200.76c19.85,0,29.05,13.59,29.05,32.62,0,19.04-29.05,44.29-29.05,44.29,0,0-29.05-25.25-29.05-44.29,0-19.04,9.2-32.62,29.05-32.62Z"/>
            </g>
          </g>
        </g>
      </g>
    </g>
  </g>
</svg>