<?xml version="1.0" encoding="UTF-8"?>
<svg id="Layer_2" data-name="Layer 2" xmlns="http://www.w3.org/2000/svg" viewBox="0 0 83.23 42.98">
  <defs>
    <style>
      .cls-1 {
        fill: #fff;
      }
    </style>
  </defs>
  <g id="GameFiles">
    <g id="Eyes_Opened">
      <path class="cls-1" d="M63.49.07c-6.45-.51-12.35,1.83-16.6,5.88-2.96,2.83-7.6,2.83-10.56,0C32.09,1.89,26.18-.44,19.74.07,9.24.9.79,9.44.05,19.95c-.88,12.57,9.06,23.03,21.44,23.03,5.77,0,11.01-2.28,14.88-5.98,2.93-2.81,7.56-2.81,10.5,0,3.86,3.71,9.1,5.98,14.88,5.98,12.38,0,22.31-10.47,21.44-23.03C82.44,9.44,73.99.9,63.49.07Z"/>
      <path d="M57.62,22.62c.09.38.16.77.16,1.17,0,2.73-2.21,4.93-4.93,4.93s-4.93-2.21-4.93-4.93c0-.41.06-.79.16-1.17-2.44,1.57-4.07,4.31-4.07,7.44,0,4.89,3.96,8.85,8.85,8.85s8.85-3.96,8.85-8.85c0-3.12-1.62-5.86-4.07-7.44Z"/>
      <path d="M32.39,22.62c.09.38.16.77.16,1.17,0,2.73-2.21,4.93-4.93,4.93s-4.93-2.21-4.93-4.93c0-.41.06-.79.16-1.17-2.44,1.57-4.07,4.31-4.07,7.44,0,4.89,3.96,8.85,8.85,8.85s8.85-3.96,8.85-8.85c0-3.12-1.62-5.86-4.07-7.44Z"/>
    </g>
  </g>
</svg>