<?xml version="1.0" encoding="UTF-8"?>
<svg id="Layer_2" data-name="Layer 2" xmlns="http://www.w3.org/2000/svg" viewBox="0 0 29.07 29.59">
  <defs>
    <style>
      .cls-1 {
        fill: #9dd3f5;
      }

      .cls-2 {
        fill: #0b83ad;
      }
    </style>
  </defs>
  <g id="GameFiles">
    <g id="Mouth_Open">
      <path class="cls-1" d="M14.53,1.86c8.91,0,13.04,4.9,13.04,11.76,0,6.86-13.04,15.97-13.04,15.97,0,0-13.04-9.1-13.04-15.97,0-6.86,4.13-11.76,13.04-11.76Z"/>
      <path class="cls-2" d="M14.53,4.72c6.88,0,10.07,3.89,10.07,9.34,0,5.45-10.07,12.68-10.07,12.68,0,0-10.07-7.23-10.07-12.68,0-5.45,3.19-9.34,10.07-9.34Z"/>
      <path class="cls-1" d="M14.53,0c8.21,0,14.53,3.33,14.53,8,0,4.67-14.53,10.86-14.53,10.86C14.53,18.86,0,12.67,0,8,0,3.33,6.32,0,14.53,0Z"/>
    </g>
  </g>
</svg>